%
M48
M72
T01C0.0236
T02C0.0320
T03C0.0354
T04C0.0394
T05C0.0400
T06C0.0650
T07C0.0660
T08C0.0866
T09C0.1260
T10C0.1400
%
T01
X2136Y3150
X2542Y5541
X3641Y6056
X4695Y6716
X6845Y6716
X6823Y8769
X7400Y9816
X7397Y10654
X8135Y11247
X8399Y10756
X8726Y11195
X9206Y10931
X10528Y11697
X11242Y11661
X11184Y9515
X12591Y8122
X13140Y7062
X13729Y7073
X14262Y6936
X14502Y7452
X14485Y8007
X11086Y7581
X11097Y6860
X9710Y4789
X7988Y4607
X5170Y3221
X4983Y9378
X4429Y9476
X4738Y12349
X7284Y13863
X7830Y13811
X8480Y13819
X8374Y14359
X9115Y14313
X9600Y13577
X10012Y14382
X10588Y13752
X11104Y13999
X11850Y14195
X9468Y15799
X9023Y16427
X9658Y16587
X10228Y17482
X9593Y18002
X8594Y17947
X8414Y17332
X7433Y18472
X6495Y19191
X6438Y19817
X6190Y21042
X7318Y21772
X5900Y22593
X5310Y22908
X4573Y22854
X3355Y22046
X3710Y25401
X8803Y23222
X10263Y21777
X11603Y22762
X13410Y22325
X14271Y22175
X14969Y21527
X14505Y21114
X13559Y19803
X12697Y20712
X12196Y19912
X11803Y19422
X11563Y19952
X10783Y19492
X10349Y20665
X12596Y18502
X12702Y17631
X13045Y17137
X15360Y12322
X7577Y11414
X6963Y15504
X6975Y16074
X5046Y15855
X6318Y17825
X15043Y22667
X16849Y26902
X20138Y19619
X20738Y19289
X31290Y17484
X32559Y18670
X35667Y16773
X33818Y14379
X33446Y21498
X35608Y21495
X15860Y3267
X13313Y3135
T02
X13417Y8540
X13417Y10440
X5618Y17577
X5618Y19477
X7203Y24722
X8203Y24722
X9203Y24722
X10203Y24722
X10703Y25722
X9703Y25722
X8703Y25722
X7703Y25722
X7353Y30172
X6353Y30172
X10553Y30172
X11553Y30172
T03
X23788Y12841
X26347Y12841
X32588Y13011
X35147Y13011
T04
X34419Y20049
X33434Y20049
X32450Y20049
X32450Y25758
X34419Y25758
X25578Y26909
X23578Y26909
X23578Y23909
X23578Y22849
X25578Y22849
X25578Y23909
X25578Y19849
X25578Y18789
X23578Y18789
X23578Y19849
X23578Y15789
X25578Y15789
X17329Y16082
X17329Y15082
X17329Y14082
X17329Y13082
X17329Y12082
X17329Y11082
X17329Y10082
X17329Y9082
X17329Y8082
X17329Y7082
X16329Y7082
X16329Y8082
X16329Y9082
X16329Y10082
X16329Y11082
X16329Y12082
X16329Y13082
X16329Y14082
X16329Y15082
X16329Y16082
X16329Y17082
X16329Y18082
X17329Y18082
X17329Y17082
X17329Y19082
X16329Y19082
X16329Y20082
X17329Y20082
X17329Y21082
X16329Y21082
X16329Y22082
X17329Y22082
X17329Y23082
X16329Y23082
X16329Y24082
X17329Y24082
X17329Y25082
X16329Y25082
X2329Y25082
X2329Y24082
X2329Y23082
X2329Y22082
X2329Y21082
X2329Y20082
X2329Y19082
X2329Y18082
X2329Y17082
X2329Y16082
X2329Y15082
X2329Y14082
X2329Y13082
X2329Y12082
X2329Y11082
X2329Y10082
X2329Y9082
X2329Y8082
X2329Y7082
X1329Y7082
X1329Y8082
X1329Y9082
X1329Y10082
X1329Y11082
X1329Y12082
X1329Y13082
X1329Y14082
X1329Y15082
X1329Y16082
X1329Y17082
X1329Y18082
X1329Y19082
X1329Y20082
X1329Y21082
X1329Y22082
X1329Y23082
X1329Y24082
X1329Y25082
X1329Y26082
X2329Y26082
T05
X20331Y18091
X21331Y18091
X21331Y17091
X20331Y17091
X20331Y16091
X21331Y16091
X21331Y15091
X20331Y15091
X20331Y14091
X21331Y14091
X21595Y11425
X21595Y10425
X21595Y9425
X21595Y8425
X21595Y7425
X23677Y7527
X25457Y7527
X25457Y10087
X23677Y10087
X29131Y14081
X29131Y15081
X29131Y16081
X29131Y17081
X29131Y18081
X30131Y18081
X30131Y17081
X30131Y16081
X30131Y15081
X30131Y14081
X30395Y11415
X30395Y10415
X30395Y9415
X30395Y8415
X30395Y7415
X32477Y7517
X34257Y7517
X34257Y10077
X32477Y10077
T06
X12103Y27072
X5803Y27072
T07
X8789Y19701
T08
X31033Y23002
X35836Y23002
T09
X33425Y28817
X30005Y28817
X24625Y28827
X21205Y28827
X21209Y3240
X24629Y3240
X30009Y3230
X33429Y3230
T10
X11203Y28222
X6703Y28222
M30
