G75*
%MOIN*%
%OFA0B0*%
%FSLAX24Y24*%
%IPPOS*%
%LPD*%
%AMOC8*
5,1,8,0,0,1.08239X$1,22.5*
%
%ADD10R,0.0295X0.0547*%
%ADD11R,0.0400X0.0400*%
%ADD12R,0.1640X0.1640*%
%ADD13C,0.0060*%
%ADD14C,0.0640*%
%ADD15R,0.0513X0.0474*%
%ADD16R,0.0395X0.0552*%
%ADD17R,0.0474X0.0513*%
%ADD18R,0.0395X0.0395*%
%ADD19C,0.0095*%
%ADD20R,0.0780X0.0780*%
%ADD21R,0.0297X0.0552*%
%ADD22R,0.0356X0.0552*%
%ADD23R,0.0680X0.0680*%
%ADD24C,0.0680*%
%ADD25C,0.1055*%
%ADD26C,0.1480*%
%ADD27R,0.0474X0.0631*%
%ADD28R,0.0867X0.1064*%
%ADD29R,0.0867X0.1379*%
%ADD30R,0.0277X0.1300*%
%ADD31OC8,0.0740*%
%ADD32R,0.1104X0.0336*%
%ADD33R,0.0631X0.0828*%
%ADD34R,0.0789X0.0631*%
%ADD35R,0.0356X0.0671*%
%ADD36R,0.0749X0.0474*%
%ADD37R,0.0580X0.0330*%
%ADD38C,0.0820*%
%ADD39OC8,0.0820*%
%ADD40C,0.0780*%
%ADD41R,0.0714X0.0714*%
%ADD42R,0.1346X0.1346*%
%ADD43R,0.0631X0.0474*%
%ADD44R,0.0395X0.0395*%
%ADD45C,0.1070*%
%ADD46C,0.2049*%
D10*
X011567Y016999D03*
D11*
X011238Y011659D03*
X010518Y011689D03*
D12*
X008798Y019709D03*
D13*
X008719Y027119D02*
X008933Y027119D01*
X009039Y027225D01*
X009039Y027652D01*
X008933Y027759D01*
X008719Y027759D01*
X008612Y027652D01*
X008612Y027225D01*
X008719Y027119D01*
X009257Y027119D02*
X009257Y027759D01*
X009577Y027759D01*
X009684Y027652D01*
X009684Y027439D01*
X009577Y027332D01*
X009257Y027332D01*
X008395Y027759D02*
X007968Y027759D01*
X008181Y027759D02*
X008181Y027119D01*
D14*
X005618Y019477D03*
X005618Y017577D03*
X013417Y010440D03*
X013417Y008540D03*
D15*
X010366Y010609D03*
X009697Y010609D03*
X009723Y012132D03*
X009053Y012132D03*
X008033Y012064D03*
X007363Y012064D03*
X006262Y012069D03*
X005593Y012069D03*
X005585Y011024D03*
X005590Y010438D03*
X006259Y010438D03*
X006254Y011024D03*
X009469Y007611D03*
X010138Y007611D03*
X010137Y006842D03*
X009468Y006842D03*
X011218Y012181D03*
X011887Y012181D03*
X011958Y018623D03*
X011289Y018623D03*
X011329Y020658D03*
X011998Y020658D03*
X011998Y021324D03*
X011329Y021324D03*
X009741Y021750D03*
X009072Y021750D03*
X008500Y021756D03*
X007830Y021756D03*
X007828Y022522D03*
X008497Y022522D03*
X009068Y022522D03*
X009737Y022522D03*
X010668Y023422D03*
X011337Y023422D03*
X007527Y020672D03*
X006858Y020672D03*
X005851Y021042D03*
X005182Y021042D03*
X005188Y021842D03*
X005857Y021842D03*
X006258Y023402D03*
X006927Y023402D03*
X005313Y023470D03*
X005313Y024140D03*
X004503Y024150D03*
X004503Y023480D03*
X014908Y026952D03*
X015577Y026952D03*
X021178Y024064D03*
X021847Y024064D03*
X021862Y023303D03*
X021193Y023303D03*
X021191Y022529D03*
X021861Y022529D03*
X021861Y021735D03*
X021191Y021735D03*
D16*
X011017Y022522D03*
X010309Y022522D03*
X010057Y023422D03*
X009349Y023422D03*
X008197Y023402D03*
X007489Y023402D03*
X007277Y022522D03*
X006569Y022522D03*
X003999Y011313D03*
X003290Y011313D03*
X003295Y010599D03*
X004004Y010599D03*
X011537Y007581D03*
X012246Y007581D03*
X012250Y006860D03*
X011542Y006860D03*
D17*
X008784Y006894D03*
X008784Y007564D03*
X012478Y012168D03*
X012478Y012837D03*
X011128Y014947D03*
X011128Y015616D03*
X010326Y015614D03*
X010326Y014944D03*
X012494Y016355D03*
X012494Y017024D03*
X009223Y017358D03*
X009223Y018027D03*
X007754Y017771D03*
X007754Y017102D03*
X006961Y017103D03*
X006961Y017772D03*
X003703Y023472D03*
X003703Y024142D03*
X003702Y026039D03*
X003702Y026708D03*
X026298Y009063D03*
X026298Y008394D03*
X017057Y003747D03*
X017057Y003078D03*
X001460Y003135D03*
X001460Y003804D03*
X031810Y017490D03*
X031810Y018159D03*
X032591Y018161D03*
X032591Y017492D03*
X033357Y017492D03*
X033357Y018161D03*
X034083Y018163D03*
X034083Y017494D03*
X034813Y017489D03*
X034813Y018159D03*
X035496Y018159D03*
X035496Y017490D03*
X036168Y017490D03*
X036168Y018159D03*
X035658Y009213D03*
X035658Y008544D03*
D18*
X036578Y021380D03*
X036578Y021970D03*
X017057Y005188D03*
X017057Y004598D03*
X011918Y012674D03*
X011328Y012674D03*
X010058Y012664D03*
X009468Y012664D03*
X007958Y012674D03*
X007368Y012674D03*
X006058Y012679D03*
X005468Y012679D03*
X001460Y005069D03*
X001460Y004479D03*
D19*
X008349Y018765D02*
X008349Y019065D01*
X008349Y018765D02*
X008253Y018765D01*
X008253Y019065D01*
X008349Y019065D01*
X008349Y018859D02*
X008253Y018859D01*
X008253Y018953D02*
X008349Y018953D01*
X008349Y019047D02*
X008253Y019047D01*
X008546Y019065D02*
X008546Y018765D01*
X008450Y018765D01*
X008450Y019065D01*
X008546Y019065D01*
X008546Y018859D02*
X008450Y018859D01*
X008450Y018953D02*
X008546Y018953D01*
X008546Y019047D02*
X008450Y019047D01*
X008742Y019065D02*
X008742Y018765D01*
X008646Y018765D01*
X008646Y019065D01*
X008742Y019065D01*
X008742Y018859D02*
X008646Y018859D01*
X008646Y018953D02*
X008742Y018953D01*
X008742Y019047D02*
X008646Y019047D01*
X008939Y019065D02*
X008939Y018765D01*
X008843Y018765D01*
X008843Y019065D01*
X008939Y019065D01*
X008939Y018859D02*
X008843Y018859D01*
X008843Y018953D02*
X008939Y018953D01*
X008939Y019047D02*
X008843Y019047D01*
X009136Y019065D02*
X009136Y018765D01*
X009040Y018765D01*
X009040Y019065D01*
X009136Y019065D01*
X009136Y018859D02*
X009040Y018859D01*
X009040Y018953D02*
X009136Y018953D01*
X009136Y019047D02*
X009040Y019047D01*
X009333Y019065D02*
X009333Y018765D01*
X009237Y018765D01*
X009237Y019065D01*
X009333Y019065D01*
X009333Y018859D02*
X009237Y018859D01*
X009237Y018953D02*
X009333Y018953D01*
X009333Y019047D02*
X009237Y019047D01*
X009430Y019162D02*
X009730Y019162D01*
X009430Y019162D02*
X009430Y019258D01*
X009730Y019258D01*
X009730Y019162D01*
X009730Y019256D02*
X009430Y019256D01*
X009430Y019359D02*
X009730Y019359D01*
X009430Y019359D02*
X009430Y019455D01*
X009730Y019455D01*
X009730Y019359D01*
X009730Y019453D02*
X009430Y019453D01*
X009430Y019556D02*
X009730Y019556D01*
X009430Y019556D02*
X009430Y019652D01*
X009730Y019652D01*
X009730Y019556D01*
X009730Y019650D02*
X009430Y019650D01*
X009430Y019753D02*
X009730Y019753D01*
X009430Y019753D02*
X009430Y019849D01*
X009730Y019849D01*
X009730Y019753D01*
X009730Y019847D02*
X009430Y019847D01*
X009430Y019950D02*
X009730Y019950D01*
X009430Y019950D02*
X009430Y020046D01*
X009730Y020046D01*
X009730Y019950D01*
X009730Y020044D02*
X009430Y020044D01*
X009430Y020146D02*
X009730Y020146D01*
X009430Y020146D02*
X009430Y020242D01*
X009730Y020242D01*
X009730Y020146D01*
X009730Y020240D02*
X009430Y020240D01*
X009237Y020340D02*
X009237Y020640D01*
X009333Y020640D01*
X009333Y020340D01*
X009237Y020340D01*
X009237Y020434D02*
X009333Y020434D01*
X009333Y020528D02*
X009237Y020528D01*
X009237Y020622D02*
X009333Y020622D01*
X009040Y020640D02*
X009040Y020340D01*
X009040Y020640D02*
X009136Y020640D01*
X009136Y020340D01*
X009040Y020340D01*
X009040Y020434D02*
X009136Y020434D01*
X009136Y020528D02*
X009040Y020528D01*
X009040Y020622D02*
X009136Y020622D01*
X008843Y020640D02*
X008843Y020340D01*
X008843Y020640D02*
X008939Y020640D01*
X008939Y020340D01*
X008843Y020340D01*
X008843Y020434D02*
X008939Y020434D01*
X008939Y020528D02*
X008843Y020528D01*
X008843Y020622D02*
X008939Y020622D01*
X008646Y020640D02*
X008646Y020340D01*
X008646Y020640D02*
X008742Y020640D01*
X008742Y020340D01*
X008646Y020340D01*
X008646Y020434D02*
X008742Y020434D01*
X008742Y020528D02*
X008646Y020528D01*
X008646Y020622D02*
X008742Y020622D01*
X008450Y020640D02*
X008450Y020340D01*
X008450Y020640D02*
X008546Y020640D01*
X008546Y020340D01*
X008450Y020340D01*
X008450Y020434D02*
X008546Y020434D01*
X008546Y020528D02*
X008450Y020528D01*
X008450Y020622D02*
X008546Y020622D01*
X008253Y020640D02*
X008253Y020340D01*
X008253Y020640D02*
X008349Y020640D01*
X008349Y020340D01*
X008253Y020340D01*
X008253Y020434D02*
X008349Y020434D01*
X008349Y020528D02*
X008253Y020528D01*
X008253Y020622D02*
X008349Y020622D01*
X008155Y020242D02*
X007855Y020242D01*
X008155Y020242D02*
X008155Y020146D01*
X007855Y020146D01*
X007855Y020242D01*
X007855Y020240D02*
X008155Y020240D01*
X008155Y020046D02*
X007855Y020046D01*
X008155Y020046D02*
X008155Y019950D01*
X007855Y019950D01*
X007855Y020046D01*
X007855Y020044D02*
X008155Y020044D01*
X008155Y019849D02*
X007855Y019849D01*
X008155Y019849D02*
X008155Y019753D01*
X007855Y019753D01*
X007855Y019849D01*
X007855Y019847D02*
X008155Y019847D01*
X008155Y019652D02*
X007855Y019652D01*
X008155Y019652D02*
X008155Y019556D01*
X007855Y019556D01*
X007855Y019652D01*
X007855Y019650D02*
X008155Y019650D01*
X008155Y019455D02*
X007855Y019455D01*
X008155Y019455D02*
X008155Y019359D01*
X007855Y019359D01*
X007855Y019455D01*
X007855Y019453D02*
X008155Y019453D01*
X008155Y019258D02*
X007855Y019258D01*
X008155Y019258D02*
X008155Y019162D01*
X007855Y019162D01*
X007855Y019258D01*
X007855Y019256D02*
X008155Y019256D01*
D20*
X008793Y019702D03*
D21*
X011191Y018024D03*
X011565Y018024D03*
X011939Y018024D03*
X011939Y017000D03*
X011191Y017000D03*
D22*
X010442Y005591D03*
X009240Y005589D03*
X009240Y004133D03*
X010442Y004135D03*
D23*
X010703Y025722D03*
D24*
X009703Y025722D03*
X008703Y025722D03*
X007703Y025722D03*
X008203Y024722D03*
X007203Y024722D03*
X009203Y024722D03*
X010203Y024722D03*
X010553Y030172D03*
X011553Y030172D03*
X007353Y030172D03*
X006353Y030172D03*
D25*
X005803Y027072D03*
X012103Y027072D03*
D26*
X011203Y028222D03*
X006703Y028222D03*
D27*
X021069Y025372D03*
X021817Y025372D03*
X021443Y026238D03*
X006314Y009710D03*
X005566Y009710D03*
X005940Y008843D03*
D28*
X011571Y003140D03*
X015075Y003140D03*
D29*
X015075Y005463D03*
X011571Y005463D03*
D30*
X012693Y005502D03*
X013008Y005502D03*
X013323Y005502D03*
X013638Y005502D03*
X013953Y005502D03*
D31*
X016329Y007082D03*
X017329Y007082D03*
X017329Y008082D03*
X016329Y008082D03*
X016329Y009082D03*
X017329Y009082D03*
X017329Y010082D03*
X016329Y010082D03*
X016329Y011082D03*
X017329Y011082D03*
X017329Y012082D03*
X016329Y012082D03*
X016329Y013082D03*
X017329Y013082D03*
X017329Y014082D03*
X016329Y014082D03*
X016329Y015082D03*
X017329Y015082D03*
X017329Y016082D03*
X016329Y016082D03*
X016329Y017082D03*
X016329Y018082D03*
X017329Y018082D03*
X017329Y017082D03*
X017329Y019082D03*
X016329Y019082D03*
X016329Y020082D03*
X017329Y020082D03*
X017329Y021082D03*
X016329Y021082D03*
X016329Y022082D03*
X017329Y022082D03*
X017329Y023082D03*
X016329Y023082D03*
X016329Y024082D03*
X017329Y024082D03*
X017329Y025082D03*
X016329Y025082D03*
X002329Y025082D03*
X002329Y024082D03*
X002329Y023082D03*
X002329Y022082D03*
X002329Y021082D03*
X002329Y020082D03*
X002329Y019082D03*
X002329Y018082D03*
X002329Y017082D03*
X002329Y016082D03*
X002329Y015082D03*
X002329Y014082D03*
X002329Y013082D03*
X002329Y012082D03*
X002329Y011082D03*
X002329Y010082D03*
X002329Y009082D03*
X002329Y008082D03*
X002329Y007082D03*
X001329Y007082D03*
X001329Y008082D03*
X001329Y009082D03*
X001329Y010082D03*
X001329Y011082D03*
X001329Y012082D03*
X001329Y013082D03*
X001329Y014082D03*
X001329Y015082D03*
X001329Y016082D03*
X001329Y017082D03*
X001329Y018082D03*
X001329Y019082D03*
X001329Y020082D03*
X001329Y021082D03*
X001329Y022082D03*
X001329Y023082D03*
X001329Y024082D03*
X001329Y025082D03*
X001329Y026082D03*
X002329Y026082D03*
D32*
X013324Y025072D03*
X013324Y024572D03*
X013324Y024072D03*
X013324Y023572D03*
X013324Y023072D03*
X014781Y023072D03*
X014781Y023572D03*
X014781Y024072D03*
X014781Y024572D03*
X014781Y025072D03*
D33*
X002978Y002906D03*
X008175Y002552D03*
D34*
X005970Y008064D03*
X003608Y008064D03*
D35*
X003765Y004048D03*
X004199Y003890D03*
X004632Y004048D03*
X005065Y003890D03*
X005498Y004048D03*
X005931Y004205D03*
X006364Y004048D03*
X003332Y004048D03*
D36*
X003809Y028347D03*
X003809Y029843D03*
X001328Y029843D03*
X001328Y028347D03*
X014675Y028229D03*
X014675Y029725D03*
X017155Y029725D03*
X017155Y028229D03*
D37*
X002545Y027647D03*
X002545Y027327D03*
X002545Y027007D03*
D38*
X021595Y011425D03*
X021595Y010425D03*
X021595Y009425D03*
X021595Y008425D03*
X021595Y007425D03*
X023677Y007527D03*
X025457Y007527D03*
X025457Y010087D03*
X023677Y010087D03*
X030395Y010415D03*
X030395Y009415D03*
X030395Y008415D03*
X030395Y007415D03*
X032477Y007517D03*
X034257Y007517D03*
X034257Y010077D03*
X032477Y010077D03*
X030395Y011415D03*
D39*
X030131Y014081D03*
X030131Y015081D03*
X030131Y016081D03*
X030131Y017081D03*
X030131Y018081D03*
X029131Y018081D03*
X029131Y017081D03*
X029131Y016081D03*
X029131Y015081D03*
X029131Y014081D03*
X021331Y014091D03*
X020331Y014091D03*
X020331Y015091D03*
X021331Y015091D03*
X021331Y016091D03*
X020331Y016091D03*
X020331Y017091D03*
X021331Y017091D03*
X021331Y018091D03*
X020331Y018091D03*
D40*
X023788Y012841D03*
X026347Y012841D03*
X032588Y013011D03*
X035147Y013011D03*
D41*
X034419Y020049D03*
X033434Y020049D03*
X032450Y020049D03*
X032450Y025758D03*
X034419Y025758D03*
X025578Y026909D03*
X023578Y026909D03*
X023578Y023909D03*
X023578Y022849D03*
X025578Y022849D03*
X025578Y023909D03*
X025578Y019849D03*
X025578Y018789D03*
X023578Y018789D03*
X023578Y019849D03*
X023578Y015789D03*
X025578Y015789D03*
D42*
X031033Y023002D03*
X035836Y023002D03*
D43*
X034801Y016387D03*
X034801Y015639D03*
X035667Y016013D03*
D44*
G36*
X031881Y019089D02*
X032134Y019390D01*
X032435Y019137D01*
X032182Y018836D01*
X031881Y019089D01*
G37*
G36*
X031428Y019469D02*
X031681Y019770D01*
X031982Y019517D01*
X031729Y019216D01*
X031428Y019469D01*
G37*
G36*
X031289Y025944D02*
X031092Y026285D01*
X031433Y026482D01*
X031630Y026141D01*
X031289Y025944D01*
G37*
G36*
X031801Y026239D02*
X031604Y026580D01*
X031945Y026777D01*
X032142Y026436D01*
X031801Y026239D01*
G37*
D45*
X008789Y019701D03*
D46*
X021205Y028827D03*
X024625Y028827D03*
X030005Y028817D03*
X033425Y028817D03*
X033429Y003230D03*
X030009Y003230D03*
X024629Y003240D03*
X021209Y003240D03*
M02*
