G75*
%MOIN*%
%OFA0B0*%
%FSLAX24Y24*%
%IPPOS*%
%LPD*%
%AMOC8*
5,1,8,0,0,1.08239X$1,22.5*
%
%ADD10C,0.0060*%
%ADD11C,0.0040*%
%ADD12C,0.0160*%
%ADD13C,0.0220*%
%ADD14R,0.0300X0.0180*%
%ADD15C,0.0080*%
D10*
X002437Y004575D02*
X002437Y004812D01*
X002909Y004812D02*
X002909Y004575D01*
X005495Y006462D02*
X005731Y006462D01*
X005731Y006935D02*
X005495Y006935D01*
X006927Y009250D02*
X012339Y009250D01*
X012339Y014367D01*
X012043Y014662D01*
X006927Y014662D01*
X006927Y009250D01*
X003795Y013219D02*
X003475Y013219D01*
X003368Y013325D01*
X003475Y013432D01*
X003368Y013539D01*
X003475Y013646D01*
X003795Y013646D01*
X003795Y013863D02*
X003475Y013863D01*
X003368Y013970D01*
X003475Y014077D01*
X003368Y014183D01*
X003475Y014290D01*
X003795Y014290D01*
X003795Y014508D02*
X003475Y014508D01*
X003368Y014614D01*
X003475Y014721D01*
X003368Y014828D01*
X003475Y014935D01*
X003795Y014935D01*
X003475Y015152D02*
X003475Y015259D01*
X003368Y015259D01*
X003368Y015152D01*
X003475Y015152D01*
X003475Y015474D02*
X003368Y015581D01*
X003368Y015901D01*
X003688Y015901D01*
X003795Y015795D01*
X003795Y015581D01*
X003581Y015581D02*
X003581Y015901D01*
X003475Y016119D02*
X003368Y016226D01*
X003368Y016546D01*
X003688Y016546D01*
X003795Y016439D01*
X003795Y016226D01*
X003581Y016226D02*
X003581Y016546D01*
X003581Y016764D02*
X003795Y017084D01*
X003795Y017407D02*
X003795Y017621D01*
X003688Y017728D01*
X003368Y017728D01*
X003368Y017407D01*
X003475Y017301D01*
X003581Y017407D01*
X003581Y017728D01*
X003581Y017945D02*
X003795Y018159D01*
X003795Y018265D01*
X003902Y018482D02*
X004008Y018589D01*
X004008Y018803D01*
X003902Y018909D01*
X003795Y018909D01*
X003688Y018803D01*
X003581Y018909D01*
X003475Y018909D01*
X003368Y018803D01*
X003368Y018589D01*
X003475Y018482D01*
X003688Y018696D02*
X003688Y018803D01*
X003688Y019127D02*
X003795Y019234D01*
X003795Y019554D01*
X004008Y019554D02*
X003368Y019554D01*
X003368Y019234D01*
X003475Y019127D01*
X003688Y019127D01*
X003795Y019771D02*
X003154Y019771D01*
X003368Y019771D02*
X003368Y020092D01*
X003475Y020198D01*
X003688Y020198D01*
X003795Y020092D01*
X003795Y019771D01*
X003475Y020416D02*
X003475Y020523D01*
X003368Y020523D01*
X003368Y020416D01*
X003475Y020416D01*
X003368Y020738D02*
X003368Y020952D01*
X003368Y020845D02*
X003795Y020845D01*
X003795Y020738D01*
X004008Y020845D02*
X004115Y020845D01*
X003795Y021168D02*
X003795Y021488D01*
X003688Y021595D01*
X003368Y021595D01*
X003368Y021168D02*
X003795Y021168D01*
X003795Y017945D02*
X003368Y017945D01*
X003368Y017084D02*
X003581Y016764D01*
X003368Y016764D02*
X004008Y016764D01*
X003581Y016226D02*
X003475Y016119D01*
X003581Y015581D02*
X003475Y015474D01*
X011010Y013728D02*
X011012Y013767D01*
X011018Y013806D01*
X011028Y013844D01*
X011041Y013881D01*
X011058Y013916D01*
X011078Y013950D01*
X011102Y013981D01*
X011129Y014010D01*
X011158Y014036D01*
X011190Y014059D01*
X011224Y014079D01*
X011260Y014095D01*
X011297Y014107D01*
X011336Y014116D01*
X011375Y014121D01*
X011414Y014122D01*
X011453Y014119D01*
X011492Y014112D01*
X011529Y014101D01*
X011566Y014087D01*
X011601Y014069D01*
X011634Y014048D01*
X011665Y014023D01*
X011693Y013996D01*
X011718Y013966D01*
X011740Y013933D01*
X011759Y013899D01*
X011774Y013863D01*
X011786Y013825D01*
X011794Y013787D01*
X011798Y013748D01*
X011798Y013708D01*
X011794Y013669D01*
X011786Y013631D01*
X011774Y013593D01*
X011759Y013557D01*
X011740Y013523D01*
X011718Y013490D01*
X011693Y013460D01*
X011665Y013433D01*
X011634Y013408D01*
X011601Y013387D01*
X011566Y013369D01*
X011529Y013355D01*
X011492Y013344D01*
X011453Y013337D01*
X011414Y013334D01*
X011375Y013335D01*
X011336Y013340D01*
X011297Y013349D01*
X011260Y013361D01*
X011224Y013377D01*
X011190Y013397D01*
X011158Y013420D01*
X011129Y013446D01*
X011102Y013475D01*
X011078Y013506D01*
X011058Y013540D01*
X011041Y013575D01*
X011028Y013612D01*
X011018Y013650D01*
X011012Y013689D01*
X011010Y013728D01*
X009968Y027119D02*
X009648Y027119D01*
X009541Y027225D01*
X009541Y027332D01*
X009648Y027439D01*
X009968Y027439D01*
X009968Y027759D02*
X009648Y027759D01*
X009541Y027652D01*
X009541Y027546D01*
X009648Y027439D01*
X009968Y027119D02*
X009968Y027759D01*
X009323Y027759D02*
X008896Y027759D01*
X009110Y027759D02*
X009110Y027119D01*
X008679Y027119D02*
X008679Y027759D01*
X008465Y027546D01*
X008252Y027759D01*
X008252Y027119D01*
D11*
X022785Y012095D02*
X023092Y012095D01*
X023168Y012018D01*
X023168Y011788D01*
X022708Y011788D01*
X022708Y012018D01*
X022785Y012095D01*
X022708Y011635D02*
X023168Y011635D01*
X023168Y011328D02*
X022708Y011328D01*
X022785Y011174D02*
X022938Y011174D01*
X022938Y011021D01*
X022785Y011174D02*
X022708Y011098D01*
X022708Y010944D01*
X022785Y010867D01*
X023092Y010867D01*
X023168Y010944D01*
X023168Y011098D01*
X023092Y011174D01*
X023168Y011328D02*
X022708Y011635D01*
X022708Y010253D02*
X022708Y009947D01*
X023168Y009947D01*
X023168Y009793D02*
X023168Y009486D01*
X022708Y009486D01*
X022708Y009793D01*
X022938Y009640D02*
X022938Y009486D01*
X022861Y009333D02*
X022785Y009333D01*
X022708Y009256D01*
X022708Y009102D01*
X022785Y009026D01*
X022785Y008872D02*
X022708Y008796D01*
X022708Y008642D01*
X022785Y008565D01*
X022938Y008642D02*
X022938Y008796D01*
X022861Y008872D01*
X022785Y008872D01*
X022938Y008642D02*
X023015Y008565D01*
X023092Y008565D01*
X023168Y008642D01*
X023168Y008796D01*
X023092Y008872D01*
X023092Y009026D02*
X023015Y009026D01*
X022938Y009102D01*
X022938Y009256D01*
X022861Y009333D01*
X023092Y009333D02*
X023168Y009256D01*
X023168Y009102D01*
X023092Y009026D01*
X023168Y007491D02*
X023168Y007338D01*
X023168Y007414D02*
X022708Y007414D01*
X022708Y007338D02*
X022708Y007491D01*
X022785Y007184D02*
X023092Y007184D01*
X023168Y007107D01*
X023168Y006877D01*
X022708Y006877D01*
X022708Y007107D01*
X022785Y007184D01*
X022797Y006649D02*
X022643Y006495D01*
X022643Y006189D01*
X022490Y006189D02*
X022490Y006649D01*
X022183Y006189D01*
X022183Y006649D01*
X022029Y006649D02*
X022029Y006189D01*
X021722Y006189D01*
X021569Y006189D02*
X021262Y006189D01*
X021262Y005899D02*
X021339Y005822D01*
X021339Y005515D01*
X021262Y005439D01*
X021108Y005439D01*
X021032Y005515D01*
X021032Y005822D01*
X021108Y005899D01*
X021262Y005899D01*
X021492Y005899D02*
X021799Y005899D01*
X021646Y005899D02*
X021646Y005439D01*
X021646Y005149D02*
X021876Y005149D01*
X021876Y004689D01*
X021646Y004689D01*
X021569Y004765D01*
X021569Y005072D01*
X021646Y005149D01*
X021415Y005149D02*
X021262Y005149D01*
X021339Y005149D02*
X021339Y004689D01*
X021415Y004689D02*
X021262Y004689D01*
X021108Y004689D02*
X021108Y004995D01*
X020955Y005149D01*
X020802Y004995D01*
X020802Y004689D01*
X020802Y004919D02*
X021108Y004919D01*
X020878Y005439D02*
X020878Y005899D01*
X020571Y005439D01*
X020571Y005899D01*
X021569Y006189D02*
X021569Y006649D01*
X021722Y006649D02*
X022029Y006649D01*
X022029Y006419D02*
X021876Y006419D01*
X021953Y005899D02*
X022259Y005899D01*
X022106Y005899D02*
X022106Y005439D01*
X022029Y005149D02*
X022029Y004689D01*
X022336Y005149D01*
X022336Y004689D01*
X022490Y004689D02*
X022643Y004689D01*
X022566Y004689D02*
X022566Y005149D01*
X022490Y005149D02*
X022643Y005149D01*
X022643Y005439D02*
X022490Y005439D01*
X022413Y005515D01*
X022413Y005899D01*
X022720Y005899D02*
X022720Y005515D01*
X022643Y005439D01*
X022873Y005515D02*
X022950Y005439D01*
X023180Y005439D01*
X023180Y005899D01*
X022950Y005899D01*
X022873Y005822D01*
X022873Y005745D01*
X022950Y005669D01*
X023180Y005669D01*
X022950Y005669D02*
X022873Y005592D01*
X022873Y005515D01*
X023257Y005149D02*
X023257Y004689D01*
X023564Y005149D01*
X023564Y004689D01*
X023717Y004689D02*
X023871Y004689D01*
X023794Y004689D02*
X023794Y005149D01*
X023871Y005149D02*
X023717Y005149D01*
X023794Y005439D02*
X023871Y005439D01*
X023871Y005515D01*
X023794Y005515D01*
X023794Y005439D01*
X023794Y005669D02*
X023871Y005669D01*
X023871Y005745D01*
X023794Y005745D01*
X023794Y005669D01*
X024024Y005439D02*
X024331Y005439D01*
X024331Y005899D01*
X024485Y005899D02*
X024792Y005899D01*
X024792Y005439D01*
X024485Y005439D01*
X024638Y005669D02*
X024792Y005669D01*
X024945Y005822D02*
X025022Y005899D01*
X025252Y005899D01*
X025252Y005439D01*
X025022Y005439D01*
X024945Y005515D01*
X024945Y005822D01*
X024945Y006189D02*
X025175Y006419D01*
X025252Y006342D02*
X024945Y006649D01*
X024792Y006495D02*
X024792Y006189D01*
X024792Y006419D02*
X024485Y006419D01*
X024485Y006495D02*
X024485Y006189D01*
X024331Y006189D02*
X024331Y006649D01*
X024101Y006649D01*
X024024Y006572D01*
X024024Y006419D01*
X024101Y006342D01*
X024331Y006342D01*
X024178Y006342D02*
X024024Y006189D01*
X023410Y006189D02*
X023410Y006649D01*
X023180Y006649D01*
X023104Y006572D01*
X023104Y006419D01*
X023180Y006342D01*
X023410Y006342D01*
X022950Y006419D02*
X022643Y006419D01*
X022797Y006649D02*
X022950Y006495D01*
X022950Y006189D01*
X024485Y006495D02*
X024638Y006649D01*
X024792Y006495D01*
X025252Y006649D02*
X025252Y006189D01*
X025405Y006189D02*
X025405Y006495D01*
X025559Y006649D01*
X025712Y006495D01*
X025712Y006189D01*
X025866Y006189D02*
X025866Y006495D01*
X026019Y006649D01*
X026173Y006495D01*
X026173Y006189D01*
X026173Y006419D02*
X025866Y006419D01*
X025712Y006419D02*
X025405Y006419D01*
X025482Y005899D02*
X025405Y005822D01*
X025405Y005515D01*
X025482Y005439D01*
X025636Y005439D01*
X025712Y005515D01*
X025712Y005822D01*
X025636Y005899D01*
X025482Y005899D01*
X025866Y005899D02*
X025866Y005439D01*
X025866Y005149D02*
X025866Y004689D01*
X025712Y004689D02*
X025712Y004995D01*
X025559Y005149D01*
X025405Y004995D01*
X025405Y004689D01*
X025252Y004689D02*
X025022Y004689D01*
X024945Y004765D01*
X024945Y005072D01*
X025022Y005149D01*
X025252Y005149D01*
X025252Y004689D01*
X025405Y004919D02*
X025712Y004919D01*
X025866Y005149D02*
X026019Y004995D01*
X026173Y005149D01*
X026173Y004689D01*
X026173Y005439D02*
X026173Y005899D01*
X026019Y005745D01*
X025866Y005899D01*
X024792Y005149D02*
X024792Y004689D01*
X024485Y004689D01*
X024638Y004919D02*
X024792Y004919D01*
X024792Y005149D02*
X024485Y005149D01*
X020468Y008163D02*
X020392Y008086D01*
X020315Y008086D01*
X020238Y008163D01*
X020238Y008316D01*
X020161Y008393D01*
X020085Y008393D01*
X020008Y008316D01*
X020008Y008163D01*
X020085Y008086D01*
X020468Y008163D02*
X020468Y008316D01*
X020392Y008393D01*
X020392Y008547D02*
X020085Y008547D01*
X020008Y008623D01*
X020008Y008777D01*
X020085Y008853D01*
X020161Y009007D02*
X020468Y009314D01*
X020468Y009007D02*
X020008Y009007D01*
X020238Y009084D02*
X020008Y009314D01*
X020392Y008853D02*
X020468Y008777D01*
X020468Y008623D01*
X020392Y008547D01*
X020468Y009928D02*
X020238Y009928D01*
X020315Y010081D01*
X020315Y010158D01*
X020238Y010235D01*
X020085Y010235D01*
X020008Y010158D01*
X020008Y010004D01*
X020085Y009928D01*
X020468Y009928D02*
X020468Y010235D01*
X020468Y010388D02*
X020161Y010388D01*
X020008Y010542D01*
X020161Y010695D01*
X020468Y010695D01*
X028808Y010532D02*
X028961Y010685D01*
X029268Y010685D01*
X029268Y010378D02*
X028961Y010378D01*
X028808Y010532D01*
X028885Y010225D02*
X028808Y010148D01*
X028808Y009994D01*
X028885Y009918D01*
X029038Y009918D02*
X029115Y010071D01*
X029115Y010148D01*
X029038Y010225D01*
X028885Y010225D01*
X029038Y009918D02*
X029268Y009918D01*
X029268Y010225D01*
X029268Y009304D02*
X028961Y008997D01*
X029038Y009074D02*
X028808Y009304D01*
X028808Y008997D02*
X029268Y008997D01*
X029192Y008843D02*
X029268Y008767D01*
X029268Y008613D01*
X029192Y008537D01*
X028885Y008537D01*
X028808Y008613D01*
X028808Y008767D01*
X028885Y008843D01*
X028885Y008383D02*
X028808Y008306D01*
X028808Y008153D01*
X028885Y008076D01*
X029038Y008153D02*
X029038Y008306D01*
X028961Y008383D01*
X028885Y008383D01*
X029038Y008153D02*
X029115Y008076D01*
X029192Y008076D01*
X029268Y008153D01*
X029268Y008306D01*
X029192Y008383D01*
X031508Y008632D02*
X031585Y008555D01*
X031508Y008632D02*
X031508Y008786D01*
X031585Y008862D01*
X031661Y008862D01*
X031738Y008786D01*
X031738Y008632D01*
X031815Y008555D01*
X031892Y008555D01*
X031968Y008632D01*
X031968Y008786D01*
X031892Y008862D01*
X031892Y009016D02*
X031815Y009016D01*
X031738Y009092D01*
X031738Y009246D01*
X031661Y009323D01*
X031585Y009323D01*
X031508Y009246D01*
X031508Y009092D01*
X031585Y009016D01*
X031892Y009016D02*
X031968Y009092D01*
X031968Y009246D01*
X031892Y009323D01*
X031968Y009476D02*
X031508Y009476D01*
X031508Y009783D01*
X031508Y009937D02*
X031508Y010243D01*
X031508Y009937D02*
X031968Y009937D01*
X031968Y009783D02*
X031968Y009476D01*
X031738Y009476D02*
X031738Y009630D01*
X031585Y010857D02*
X031508Y010934D01*
X031508Y011088D01*
X031585Y011164D01*
X031738Y011164D01*
X031738Y011011D01*
X031892Y011164D02*
X031968Y011088D01*
X031968Y010934D01*
X031892Y010857D01*
X031585Y010857D01*
X031508Y011318D02*
X031968Y011318D01*
X031508Y011625D01*
X031968Y011625D01*
X031968Y011778D02*
X031968Y012008D01*
X031892Y012085D01*
X031585Y012085D01*
X031508Y012008D01*
X031508Y011778D01*
X031968Y011778D01*
X031968Y007481D02*
X031968Y007328D01*
X031968Y007404D02*
X031508Y007404D01*
X031508Y007328D02*
X031508Y007481D01*
X031585Y007174D02*
X031508Y007097D01*
X031508Y006867D01*
X031968Y006867D01*
X031968Y007097D01*
X031892Y007174D01*
X031585Y007174D01*
X031648Y006599D02*
X031648Y006139D01*
X031955Y006599D01*
X031955Y006139D01*
X032108Y006139D02*
X032108Y006445D01*
X032262Y006599D01*
X032415Y006445D01*
X032415Y006139D01*
X032415Y006369D02*
X032108Y006369D01*
X032569Y006369D02*
X032645Y006292D01*
X032876Y006292D01*
X032876Y006139D02*
X032876Y006599D01*
X032645Y006599D01*
X032569Y006522D01*
X032569Y006369D01*
X032645Y005849D02*
X032415Y005849D01*
X032338Y005772D01*
X032338Y005619D01*
X032415Y005542D01*
X032645Y005542D01*
X032492Y005542D02*
X032338Y005389D01*
X032185Y005465D02*
X032185Y005772D01*
X032108Y005849D01*
X031955Y005849D01*
X031878Y005772D01*
X031878Y005465D01*
X031955Y005389D01*
X032108Y005389D01*
X032185Y005465D01*
X032108Y005099D02*
X031955Y005099D01*
X032031Y005099D02*
X032031Y004639D01*
X031955Y004639D02*
X032108Y004639D01*
X031801Y004639D02*
X031801Y005099D01*
X031494Y004639D01*
X031494Y005099D01*
X031341Y005099D02*
X031111Y005099D01*
X031034Y005022D01*
X031034Y004715D01*
X031111Y004639D01*
X031341Y004639D01*
X031341Y005099D01*
X031571Y005389D02*
X031571Y005849D01*
X031418Y005849D02*
X031725Y005849D01*
X031494Y006139D02*
X031187Y006139D01*
X031034Y006139D02*
X030727Y006139D01*
X030804Y005849D02*
X030804Y005389D01*
X030497Y005389D01*
X030343Y005389D02*
X030343Y005849D01*
X030036Y005389D01*
X030036Y005849D01*
X029883Y005772D02*
X029883Y005465D01*
X029806Y005389D01*
X029653Y005389D01*
X029576Y005465D01*
X029576Y005772D02*
X029653Y005849D01*
X029806Y005849D01*
X029883Y005772D01*
X030497Y005849D02*
X030804Y005849D01*
X030804Y005619D02*
X030650Y005619D01*
X030727Y005099D02*
X030880Y005099D01*
X030804Y005099D02*
X030804Y004639D01*
X030880Y004639D02*
X030727Y004639D01*
X030574Y004639D02*
X030574Y004945D01*
X030420Y005099D01*
X030267Y004945D01*
X030267Y004639D01*
X030267Y004869D02*
X030574Y004869D01*
X031034Y006139D02*
X031034Y006599D01*
X031187Y006599D02*
X031494Y006599D01*
X031494Y006139D01*
X031494Y006369D02*
X031341Y006369D01*
X032645Y005849D02*
X032645Y005389D01*
X032722Y005099D02*
X032722Y004639D01*
X033029Y005099D01*
X033029Y004639D01*
X033182Y004639D02*
X033336Y004639D01*
X033259Y004639D02*
X033259Y005099D01*
X033336Y005099D02*
X033182Y005099D01*
X033259Y005389D02*
X033336Y005389D01*
X033336Y005465D01*
X033259Y005465D01*
X033259Y005389D01*
X033259Y005619D02*
X033336Y005619D01*
X033336Y005695D01*
X033259Y005695D01*
X033259Y005619D01*
X033489Y005389D02*
X033796Y005389D01*
X033796Y005849D01*
X033950Y005849D02*
X034257Y005849D01*
X034257Y005389D01*
X033950Y005389D01*
X034103Y005619D02*
X034257Y005619D01*
X034410Y005772D02*
X034410Y005465D01*
X034487Y005389D01*
X034717Y005389D01*
X034717Y005849D01*
X034487Y005849D01*
X034410Y005772D01*
X034410Y006139D02*
X034640Y006369D01*
X034717Y006292D02*
X034410Y006599D01*
X034257Y006445D02*
X034103Y006599D01*
X033950Y006445D01*
X033950Y006139D01*
X033796Y006139D02*
X033796Y006599D01*
X033566Y006599D01*
X033489Y006522D01*
X033489Y006369D01*
X033566Y006292D01*
X033796Y006292D01*
X033643Y006292D02*
X033489Y006139D01*
X033950Y006369D02*
X034257Y006369D01*
X034257Y006445D02*
X034257Y006139D01*
X034717Y006139D02*
X034717Y006599D01*
X034871Y006445D02*
X034871Y006139D01*
X034871Y006369D02*
X035177Y006369D01*
X035177Y006445D02*
X035024Y006599D01*
X034871Y006445D01*
X035177Y006445D02*
X035177Y006139D01*
X035331Y006139D02*
X035331Y006445D01*
X035484Y006599D01*
X035638Y006445D01*
X035638Y006139D01*
X035638Y006369D02*
X035331Y006369D01*
X035331Y005849D02*
X035331Y005389D01*
X035177Y005465D02*
X035101Y005389D01*
X034947Y005389D01*
X034871Y005465D01*
X034871Y005772D01*
X034947Y005849D01*
X035101Y005849D01*
X035177Y005772D01*
X035177Y005465D01*
X035484Y005695D02*
X035331Y005849D01*
X035484Y005695D02*
X035638Y005849D01*
X035638Y005389D01*
X035638Y005099D02*
X035484Y004945D01*
X035331Y005099D01*
X035331Y004639D01*
X035177Y004639D02*
X035177Y004945D01*
X035024Y005099D01*
X034871Y004945D01*
X034871Y004639D01*
X034717Y004639D02*
X034487Y004639D01*
X034410Y004715D01*
X034410Y005022D01*
X034487Y005099D01*
X034717Y005099D01*
X034717Y004639D01*
X034871Y004869D02*
X035177Y004869D01*
X035638Y004639D02*
X035638Y005099D01*
X034257Y005099D02*
X034257Y004639D01*
X033950Y004639D01*
X034103Y004869D02*
X034257Y004869D01*
X034257Y005099D02*
X033950Y005099D01*
D12*
X031288Y007419D02*
X030988Y007419D01*
X029788Y008419D02*
X029488Y008419D01*
X030988Y009419D02*
X031288Y009419D01*
X029788Y010419D02*
X029488Y010419D01*
X030888Y011419D02*
X031288Y011419D01*
X022488Y011429D02*
X022088Y011429D01*
X020988Y010429D02*
X020688Y010429D01*
X022188Y009429D02*
X022488Y009429D01*
X020988Y008429D02*
X020688Y008429D01*
X022188Y007429D02*
X022488Y007429D01*
D13*
X014169Y008874D02*
X014145Y008874D01*
X014135Y010164D02*
X014159Y010164D01*
X014173Y011595D02*
X014173Y011619D01*
X011780Y006432D02*
X011756Y006432D01*
X009076Y006528D02*
X009052Y006528D01*
X005012Y010004D02*
X005012Y010029D01*
X005292Y015006D02*
X005316Y015006D01*
X008068Y016255D02*
X008068Y016279D01*
X004864Y017887D02*
X004840Y017887D01*
X004835Y019152D02*
X004859Y019152D01*
X011604Y017129D02*
X011628Y017129D01*
X003289Y004682D02*
X003265Y004682D01*
D14*
X007008Y017617D03*
X007809Y017617D03*
D15*
X006509Y003531D02*
X003929Y003531D01*
X003929Y004831D01*
X006509Y004831D01*
X006509Y003531D01*
X006653Y003586D02*
X007598Y003586D01*
X007598Y004176D01*
X007598Y004964D02*
X007598Y005397D01*
X007441Y005554D01*
X006811Y005554D01*
X006653Y005397D01*
X006653Y004964D01*
X006653Y004176D02*
X006653Y003586D01*
M02*
