G75*
%MOIN*%
%OFA0B0*%
%FSLAX24Y24*%
%IPPOS*%
%LPD*%
%AMOC8*
5,1,8,0,0,1.08239X$1,22.5*
%
%ADD10R,0.0252X0.0504*%
%ADD11C,0.0060*%
%ADD12R,0.0671X0.0186*%
%ADD13R,0.0186X0.0671*%
%ADD14C,0.0640*%
%ADD15R,0.0474X0.0513*%
%ADD16R,0.0513X0.0474*%
%ADD17R,0.0560X0.0960*%
%ADD18R,0.1497X0.0946*%
%ADD19R,0.0552X0.0395*%
%ADD20R,0.0710X0.0631*%
%ADD21R,0.0680X0.0680*%
%ADD22C,0.0680*%
%ADD23C,0.1055*%
%ADD24C,0.1480*%
%ADD25OC8,0.0740*%
%ADD26R,0.0395X0.0552*%
%ADD27C,0.0820*%
%ADD28OC8,0.0820*%
%ADD29C,0.0780*%
%ADD30R,0.0714X0.0714*%
%ADD31R,0.1346X0.1346*%
%ADD32C,0.1070*%
%ADD33C,0.2049*%
D10*
G36*
X012993Y015383D02*
X013171Y015205D01*
X012815Y014849D01*
X012637Y015027D01*
X012993Y015383D01*
G37*
D11*
X009968Y027119D02*
X009648Y027119D01*
X009541Y027225D01*
X009541Y027332D01*
X009648Y027439D01*
X009968Y027439D01*
X009968Y027759D02*
X009648Y027759D01*
X009541Y027652D01*
X009541Y027546D01*
X009648Y027439D01*
X009968Y027119D02*
X009968Y027759D01*
X009323Y027759D02*
X008896Y027759D01*
X009110Y027759D02*
X009110Y027119D01*
X008679Y027119D02*
X008679Y027759D01*
X008465Y027546D01*
X008252Y027759D01*
X008252Y027119D01*
D12*
X006582Y014319D03*
X006582Y014122D03*
X006582Y013925D03*
X006582Y013728D03*
X006582Y013531D03*
X006582Y013334D03*
X006582Y013138D03*
X006582Y012941D03*
X006582Y012744D03*
X006582Y012547D03*
X006582Y012350D03*
X006582Y012153D03*
X006582Y011956D03*
X006582Y011760D03*
X006582Y011563D03*
X006582Y011366D03*
X006582Y011169D03*
X006582Y010972D03*
X006582Y010775D03*
X006582Y010578D03*
X006582Y010382D03*
X006582Y010185D03*
X006582Y009988D03*
X006582Y009791D03*
X006582Y009594D03*
X012684Y009594D03*
X012684Y009791D03*
X012684Y009988D03*
X012684Y010185D03*
X012684Y010382D03*
X012684Y010578D03*
X012684Y010775D03*
X012684Y010972D03*
X012684Y011169D03*
X012684Y011366D03*
X012684Y011563D03*
X012684Y011760D03*
X012684Y011956D03*
X012684Y012153D03*
X012684Y012350D03*
X012684Y012547D03*
X012684Y012744D03*
X012684Y012941D03*
X012684Y013138D03*
X012684Y013334D03*
X012684Y013531D03*
X012684Y013728D03*
X012684Y013925D03*
X012684Y014122D03*
X012684Y014319D03*
D13*
X011995Y015008D03*
X011798Y015008D03*
X011601Y015008D03*
X011404Y015008D03*
X011208Y015008D03*
X011011Y015008D03*
X010814Y015008D03*
X010617Y015008D03*
X010420Y015008D03*
X010223Y015008D03*
X010027Y015008D03*
X009830Y015008D03*
X009633Y015008D03*
X009436Y015008D03*
X009239Y015008D03*
X009042Y015008D03*
X008845Y015008D03*
X008649Y015008D03*
X008452Y015008D03*
X008255Y015008D03*
X008058Y015008D03*
X007861Y015008D03*
X007664Y015008D03*
X007467Y015008D03*
X007271Y015008D03*
X007271Y008905D03*
X007467Y008905D03*
X007664Y008905D03*
X007861Y008905D03*
X008058Y008905D03*
X008255Y008905D03*
X008452Y008905D03*
X008649Y008905D03*
X008845Y008905D03*
X009042Y008905D03*
X009239Y008905D03*
X009436Y008905D03*
X009633Y008905D03*
X009830Y008905D03*
X010027Y008905D03*
X010223Y008905D03*
X010420Y008905D03*
X010617Y008905D03*
X010814Y008905D03*
X011011Y008905D03*
X011208Y008905D03*
X011404Y008905D03*
X011601Y008905D03*
X011798Y008905D03*
X011995Y008905D03*
D14*
X013417Y008540D03*
X013417Y010440D03*
X005618Y017577D03*
X005618Y019477D03*
D15*
X004847Y019487D03*
X004847Y018818D03*
X004852Y018222D03*
X004852Y017553D03*
X007008Y017283D03*
X007008Y017952D03*
X007809Y017952D03*
X007809Y017283D03*
X005304Y015341D03*
X005304Y014671D03*
X011616Y016794D03*
X011616Y017463D03*
X014147Y010499D03*
X014147Y009830D03*
X014157Y009209D03*
X014157Y008540D03*
X011768Y006766D03*
X011768Y006097D03*
X009064Y006193D03*
X009064Y006863D03*
X003277Y005016D03*
X003277Y004347D03*
D16*
X004677Y010016D03*
X005346Y010016D03*
X007733Y016267D03*
X008402Y016267D03*
X013833Y012312D03*
X014502Y012312D03*
X014507Y011607D03*
X013838Y011607D03*
D17*
X006129Y005401D03*
X005219Y005401D03*
X004309Y005401D03*
D18*
X005219Y002961D03*
D19*
X002673Y004339D03*
X002673Y005048D03*
D20*
X007126Y005121D03*
X007126Y004019D03*
D21*
X010703Y025722D03*
D22*
X009703Y025722D03*
X008703Y025722D03*
X007703Y025722D03*
X008203Y024722D03*
X007203Y024722D03*
X009203Y024722D03*
X010203Y024722D03*
X010553Y030172D03*
X011553Y030172D03*
X007353Y030172D03*
X006353Y030172D03*
D23*
X005803Y027072D03*
X012103Y027072D03*
D24*
X011203Y028222D03*
X006703Y028222D03*
D25*
X002329Y026082D03*
X002329Y025082D03*
X002329Y024082D03*
X002329Y023082D03*
X002329Y022082D03*
X002329Y021082D03*
X002329Y020082D03*
X002329Y019082D03*
X002329Y018082D03*
X002329Y017082D03*
X002329Y016082D03*
X002329Y015082D03*
X002329Y014082D03*
X002329Y013082D03*
X002329Y012082D03*
X002329Y011082D03*
X002329Y010082D03*
X002329Y009082D03*
X002329Y008082D03*
X002329Y007082D03*
X001329Y007082D03*
X001329Y008082D03*
X001329Y009082D03*
X001329Y010082D03*
X001329Y011082D03*
X001329Y012082D03*
X001329Y013082D03*
X001329Y014082D03*
X001329Y015082D03*
X001329Y016082D03*
X001329Y017082D03*
X001329Y018082D03*
X001329Y019082D03*
X001329Y020082D03*
X001329Y021082D03*
X001329Y022082D03*
X001329Y023082D03*
X001329Y024082D03*
X001329Y025082D03*
X001329Y026082D03*
X016329Y025082D03*
X016329Y024082D03*
X016329Y023082D03*
X016329Y022082D03*
X016329Y021082D03*
X016329Y020082D03*
X016329Y019082D03*
X016329Y018082D03*
X016329Y017082D03*
X016329Y016082D03*
X016329Y015082D03*
X016329Y014082D03*
X016329Y013082D03*
X016329Y012082D03*
X016329Y011082D03*
X016329Y010082D03*
X016329Y009082D03*
X016329Y008082D03*
X016329Y007082D03*
X017329Y007082D03*
X017329Y008082D03*
X017329Y009082D03*
X017329Y010082D03*
X017329Y011082D03*
X017329Y012082D03*
X017329Y013082D03*
X017329Y014082D03*
X017329Y015082D03*
X017329Y016082D03*
X017329Y017082D03*
X017329Y018082D03*
X017329Y019082D03*
X017329Y020082D03*
X017329Y021082D03*
X017329Y022082D03*
X017329Y023082D03*
X017329Y024082D03*
X017329Y025082D03*
D26*
X005968Y006698D03*
X005259Y006698D03*
D27*
X021595Y007425D03*
X021595Y008425D03*
X021595Y009425D03*
X021595Y010425D03*
X021595Y011425D03*
X023677Y010087D03*
X025457Y010087D03*
X025457Y007527D03*
X023677Y007527D03*
X030395Y007415D03*
X030395Y008415D03*
X030395Y009415D03*
X030395Y010415D03*
X030395Y011415D03*
X032477Y010077D03*
X034257Y010077D03*
X034257Y007517D03*
X032477Y007517D03*
D28*
X030131Y014081D03*
X030131Y015081D03*
X030131Y016081D03*
X030131Y017081D03*
X030131Y018081D03*
X029131Y018081D03*
X029131Y017081D03*
X029131Y016081D03*
X029131Y015081D03*
X029131Y014081D03*
X021331Y014091D03*
X020331Y014091D03*
X020331Y015091D03*
X021331Y015091D03*
X021331Y016091D03*
X020331Y016091D03*
X020331Y017091D03*
X021331Y017091D03*
X021331Y018091D03*
X020331Y018091D03*
D29*
X023788Y012841D03*
X026347Y012841D03*
X032588Y013011D03*
X035147Y013011D03*
D30*
X034419Y020049D03*
X033434Y020049D03*
X032450Y020049D03*
X032450Y025758D03*
X034419Y025758D03*
X025578Y026909D03*
X023578Y026909D03*
X023578Y023909D03*
X023578Y022849D03*
X025578Y022849D03*
X025578Y023909D03*
X025578Y019849D03*
X025578Y018789D03*
X023578Y018789D03*
X023578Y019849D03*
X023578Y015789D03*
X025578Y015789D03*
D31*
X031033Y023002D03*
X035836Y023002D03*
D32*
X008789Y019701D03*
D33*
X021205Y028827D03*
X024625Y028827D03*
X030005Y028817D03*
X033425Y028817D03*
X033429Y003230D03*
X030009Y003230D03*
X024629Y003240D03*
X021209Y003240D03*
M02*
