%
M48
M72
T01C0.0197
T02C0.0236
T03C0.0276
T04C0.0315
T05C0.0320
T06C0.0350
T07C0.0374
T08C0.0394
T09C0.0400
T10C0.0433
T11C0.0440
T12C0.0470
T13C0.0472
T14C0.0512
T15C0.0520
T16C0.0551
T17C0.0580
T18C0.0591
T19C0.0630
T20C0.0670
T21C0.0906
T22C0.1260
%
T01
X48030Y73677
T02
X50182Y71388
X51105Y71436
X51491Y69904
X50398Y69933
X51209Y73086
X53293Y76692
X54304Y78259
X54437Y78874
X58024Y77266
X58851Y75359
X59336Y74790
X55738Y75034
X55314Y73521
X55366Y69016
X54761Y68964
X59360Y66330
X60029Y65686
X60649Y65206
X61188Y64916
X60069Y64496
X59329Y65186
X58681Y64614
X58961Y64084
X62440Y67700
X62872Y71275
X67129Y68830
X63391Y59752
X63440Y56150
X45076Y70993
X44361Y69884
X43147Y71938
X42017Y71907
X40017Y71057
X38031Y70134
X38051Y67974
X38221Y65694
X38221Y64314
X30216Y67414
X27130Y69659
X27124Y70471
X27126Y71301
X27110Y72112
X18504Y74350
X13431Y75804
X19381Y86534
X19381Y87004
X19231Y89164
X19231Y89644
X23490Y94902
X23880Y95752
X23880Y96552
X31421Y84677
X31841Y83544
X31281Y83244
X27053Y83416
X27049Y84207
X27064Y82596
X27079Y81775
X37931Y81934
X38031Y80534
X38031Y78234
X37989Y76306
X40541Y76644
X38201Y72974
X44290Y74838
X48681Y77564
X49091Y79274
X45113Y80471
X44561Y84184
X43961Y84184
X43381Y84184
X42761Y85064
X42241Y84844
X41701Y84614
X40711Y84424
X40751Y83074
X39024Y83494
X46421Y84454
X49261Y84764
X49821Y84744
X50381Y84744
X50931Y84734
X51601Y84164
X52211Y84194
X51811Y84744
X56791Y84304
X58171Y86094
X66551Y83684
X25041Y61544
X25080Y59368
X12912Y63046
X10681Y91744
T03
X25980Y90691
X25980Y89691
X34030Y89691
X34030Y90691
X42030Y90691
X42030Y89691
X50030Y89691
X50030Y90691
X57980Y90691
X57980Y89691
X58103Y65308
X57103Y65308
X55803Y65308
X54803Y65308
X53503Y65308
X52503Y65308
X51203Y65308
X50203Y65308
T04
X50480Y87091
X49480Y87091
X48480Y87091
X47480Y87091
X46480Y87091
X45480Y87091
X44480Y87091
X43480Y87091
X42480Y87091
X41480Y87091
X40480Y87091
X39480Y87091
X38480Y87091
X37480Y87091
X36480Y87091
X35480Y87091
X34480Y87091
X33480Y87091
X32480Y87091
X31480Y87091
X30480Y87091
X29480Y87091
X28480Y87091
X27480Y87091
X26480Y87091
X25480Y87091
X25480Y92091
X26480Y92091
X27480Y92091
X28480Y92091
X29480Y92091
X30480Y92091
X31480Y92091
X32480Y92091
X33480Y92091
X34480Y92091
X35480Y92091
X36480Y92091
X37480Y92091
X38480Y92091
X39480Y92091
X40480Y92091
X41480Y92091
X42480Y92091
X43480Y92091
X44480Y92091
X45480Y92091
X46480Y92091
X47480Y92091
X48480Y92091
X49480Y92091
X50480Y92091
X51480Y92091
X52480Y92091
X53480Y92091
X54480Y92091
X55480Y92091
X56480Y92091
X57480Y92091
X58480Y92091
X59480Y92091
X60480Y92091
X61480Y92091
X62480Y92091
X63480Y92091
X64480Y92091
X64480Y87091
X63480Y87091
X62480Y87091
X61480Y87091
X60480Y87091
X59480Y87091
X58480Y87091
X57480Y87091
X56480Y87091
X55480Y87091
X54480Y87091
X53480Y87091
X52480Y87091
X51480Y87091
T05
X65415Y85518
X65415Y84518
X27753Y79127
X27753Y77727
X23211Y85614
X23211Y87014
X20141Y86844
X20141Y85844
X26809Y67343
X26809Y65943
T06
X29431Y86114
X30431Y86114
X31421Y86114
X32421Y86114
X36931Y86054
X37931Y86054
X38931Y86064
X39931Y86064
X44481Y86094
X45481Y86094
X46481Y86094
X47481Y86094
X53291Y86104
X54291Y86104
X55291Y86104
X56291Y86104
X60511Y86124
X61511Y86124
X62511Y86124
X63511Y86124
T07
X63871Y62207
X63083Y62207
X63083Y61223
X63871Y61223
T08
X65515Y65871
X65515Y67642
X61484Y68043
X60484Y68043
X60484Y67043
X61484Y67043
X59484Y67043
X59484Y68043
X58484Y68043
X57484Y68043
X56484Y68043
X55484Y68043
X54484Y68043
X54484Y67043
X55484Y67043
X56484Y67043
X57484Y67043
X58484Y67043
X53484Y67043
X53484Y68043
X52484Y68043
X51484Y68043
X50484Y68043
X49484Y68043
X48484Y68043
X48484Y67043
X49484Y67043
X50484Y67043
X51484Y67043
X52484Y67043
X47484Y67043
X47484Y68043
X46484Y68043
X45484Y68043
X44484Y68043
X43484Y68043
X43484Y67043
X44484Y67043
X45484Y67043
X46484Y67043
X46484Y82043
X46484Y83043
X45484Y83043
X44484Y83043
X43484Y83043
X43484Y82043
X44484Y82043
X45484Y82043
X47484Y82043
X47484Y83043
X48484Y83043
X49484Y83043
X50484Y83043
X51484Y83043
X52484Y83043
X53484Y83043
X53484Y82043
X52484Y82043
X51484Y82043
X50484Y82043
X49484Y82043
X48484Y82043
X54484Y82043
X54484Y83043
X55484Y83043
X56484Y83043
X57484Y83043
X58484Y83043
X59484Y83043
X59484Y82043
X58484Y82043
X57484Y82043
X56484Y82043
X55484Y82043
X60484Y82043
X60484Y83043
X61484Y83043
X62484Y83043
X62484Y82043
X61484Y82043
X66284Y79981
T09
X63480Y88241
X62480Y88241
X61480Y88241
X60480Y88241
X59480Y88241
X58480Y88241
X55480Y88241
X54480Y88241
X53480Y88241
X52480Y88241
X51480Y88241
X50480Y88241
X47480Y88241
X46480Y88241
X45480Y88241
X44480Y88241
X43480Y88241
X42480Y88241
X39480Y88241
X38480Y88241
X37480Y88241
X36480Y88241
X35480Y88241
X34480Y88241
X31740Y88261
X30740Y88261
X29740Y88261
X28740Y88261
X27740Y88261
X26740Y88261
X27480Y93741
X28480Y93741
X29480Y93741
X30480Y93741
X35480Y93741
X36480Y93741
X37480Y93741
X38480Y93741
X43480Y93741
X44480Y93741
X45480Y93741
X46480Y93741
X46493Y95191
X45493Y95191
X44493Y95191
X43493Y95191
X51480Y93741
X52480Y93741
X53480Y93741
X54480Y93741
X59480Y93741
X60480Y93741
X61480Y93741
X62480Y93741
X58103Y63208
X57003Y63208
X55803Y63208
X54703Y63208
X53503Y63208
X52403Y63208
X51203Y63208
X50103Y63208
X47970Y60251
X46970Y60251
X45970Y60251
X43570Y60251
X42570Y60251
X41570Y60251
X39070Y60251
X38070Y60251
X37070Y60251
X37130Y56281
X38130Y56281
X39130Y56281
X41580Y56231
X42580Y56231
X43580Y56231
X45980Y56231
X46980Y56231
X47980Y56231
X54479Y55983
X55479Y55983
X56479Y55983
X56964Y58456
X56964Y59456
X57964Y59456
X58964Y59456
X59964Y59456
X59964Y58456
X58964Y58456
X57964Y58456
X59469Y55973
X60469Y55973
X61469Y55973
X55964Y58456
X55964Y59456
X36459Y71902
X35459Y71902
X34459Y71902
X33459Y71902
X32459Y71902
X31459Y71902
X31381Y75102
X31381Y76102
X31381Y77102
X32381Y77102
X32381Y76102
X32381Y75102
X34191Y75092
X34191Y76092
X34191Y77092
X35191Y77092
X35191Y76092
X35191Y75092
X34493Y80115
X33493Y80115
X32493Y80115
X31493Y80115
X28763Y75337
X28763Y74337
X25997Y74327
X25997Y75327
X22051Y75744
X22051Y73744
X14843Y73646
X14843Y72646
X14843Y71646
X14854Y67530
X14854Y66530
X14854Y65530
X14872Y77763
X14872Y78763
X14872Y79763
X29508Y65275
X29508Y64275
X32331Y64287
X32331Y65287
X32481Y68663
X31481Y68663
X33481Y68663
X34481Y68663
X31672Y59958
X30672Y59958
X29672Y59958
T10
X57939Y70650
T11
X50809Y59346
X50809Y58346
X50809Y57346
X50809Y56346
X50809Y55346
X22671Y91754
X21671Y91754
X20671Y91754
X17951Y91784
X16951Y91754
X15951Y91784
T12
X23097Y80346
X23097Y77346
X21799Y67908
X21799Y64908
T13
X26810Y94561
X28328Y94561
X29640Y94561
X31158Y94561
X34830Y94531
X36348Y94531
X37650Y94541
X39168Y94541
X42810Y94491
X44328Y94491
X45640Y94491
X47158Y94491
X50790Y94541
X52308Y94541
X53620Y94541
X55138Y94541
X58800Y94541
X60318Y94541
X61630Y94551
X63148Y94551
T14
X34866Y56909
X32898Y56909
X30899Y56897
X28930Y56897
X24068Y56426
X22100Y56426
X20127Y56426
X18158Y56426
X16211Y56426
X14242Y56426
X12146Y67833
X12146Y69801
X12146Y71784
X12146Y73753
X12136Y75733
X12136Y77701
X12479Y83391
X12479Y85359
X12479Y87350
X12479Y89319
X16685Y94330
X18654Y94330
X20641Y94328
X22609Y94328
T15
X18391Y86384
X14851Y86434
X17837Y62291
X19837Y62291
X21837Y62291
X21837Y59291
X19837Y59291
X17837Y59291
X11837Y59291
X11837Y62291
T16
X11521Y87564
X13181Y87564
X13181Y89724
X11531Y89724
T17
X29431Y86114
X30431Y86114
X31421Y86114
X32421Y86114
X36931Y86054
X37931Y86054
X38931Y86064
X39931Y86064
X44481Y86094
X45481Y86094
X46481Y86094
X47481Y86094
X53291Y86104
X54291Y86104
X55291Y86104
X56291Y86104
X60511Y86124
X61511Y86124
X62511Y86124
X63511Y86124
T18
X66284Y70533
X64531Y68134
X64531Y65379
X30692Y61840
X16705Y66548
X16705Y72651
X16705Y78753
T19
X57939Y78957
T20
X34861Y62304
X34821Y60074
T21
X64938Y59345
X64938Y64085
T22
X11154Y56470
X11233Y94029
X46434Y72440
X65524Y56497
X65564Y94029
M30
